<svg xmlns="http://www.w3.org/2000/svg" viewBox="0 0 1265.1 1583" style="enable-background:new 0 0 1265.1 1583" xml:space="preserve"><path d="m1182.8 52.5-42.6 108c-16.2 47.5-40.8 95.2-58.4 143.1C834 978.8 689.5 982.2 663.1 976c-138.6-32.3-152.6-403.2-137.7-577.7l3.1-36.2L2.8 0v1428c-1.2-.6 0 0-2.8 111.8 57.3 22.8 70.1 24.9 130.6 43.1l-4.8-106.3V235l274.7 189.2c-8.3 145.3-15.3 614.6 235.1 672.9C815.4 1139 993.8 900.6 1197 346.9c3.8-10.3 43.6-107.7 59.6-140l8.5-17.1c-29.7-44-56.1-90.5-82.3-137.3" style="fill:#fff"/></svg>